<?xml version="1.0" encoding="utf-8"?>
<!-- Generator: Adobe Illustrator 17.0.2, SVG Export Plug-In . SVG Version: 6.00 Build 0)  -->
<!DOCTYPE svg PUBLIC "-//W3C//DTD SVG 1.1//EN" "http://www.w3.org/Graphics/SVG/1.1/DTD/svg11.dtd">
<svg version="1.1" xmlns="http://www.w3.org/2000/svg" xmlns:xlink="http://www.w3.org/1999/xlink" x="0px" y="0px" width="511px"
	 height="511px" viewBox="0 0 511 511" enable-background="new 0 0 511 511" xml:space="preserve">
<symbol  id="New_Symbol" viewBox="-8.871 -8.463 17.742 16.926">
	<g>
		<path fill="#BE8B41" d="M8.871,2.178c0,0-2.596-2.027-5.236-4.125C3.867-2.652,5.697-8.29,5.697-8.29L0.143-4.608l-5.4-3.855
			l1.791,6.362l-5.404,3.957l6.672,0.281l2.078,6.326l2.318-6.221L8.871,2.178z"/>
	</g>
</symbol>
<g id="background">
	<circle fill="none" cx="254.856" cy="180.339" r="180.576"/>
	<g>
		<path fill="#0E132F" d="M255.5,417.046c-88.731,0-160.917-72.188-160.917-160.918c0-88.73,72.186-160.917,160.917-160.917
			c88.729,0,160.917,72.187,160.917,160.917C416.417,344.858,344.229,417.046,255.5,417.046z M255.5,97.711
			c-87.352,0-158.417,71.065-158.417,158.417c0,87.351,71.065,158.418,158.417,158.418c87.351,0,158.417-71.066,158.417-158.418
			C413.917,168.777,342.851,97.711,255.5,97.711z"/>
	</g>
	<g>
		<path fill="#0E132F" d="M255.5,426.962c-94.197,0-170.834-76.635-170.834-170.834c0-94.198,76.636-170.834,170.834-170.834
			c94.198,0,170.834,76.636,170.834,170.834C426.334,350.327,349.698,426.962,255.5,426.962z M255.5,91.295
			c-90.89,0-164.834,73.944-164.834,164.834c0,90.89,73.944,164.834,164.834,164.834c90.89,0,164.834-73.943,164.834-164.834
			C420.334,165.239,346.39,91.295,255.5,91.295z"/>
	</g>
	<path fill="#0E132F" d="M197.018,269.788"/>
</g>
<g id="inner_circle">
	<rect x="715.729" y="-19.854" fill="#285442" width="524.629" height="524.974"/>
	<circle opacity="0.2" fill="#808184" cx="255.5" cy="255.5" r="158.5"/>
	<path fill="none" d="M84.03,254.274c1.037-94.352,78.366-170.001,172.721-168.966c94.354,1.035,170.006,78.367,168.969,172.723
		c-1.039,94.355-78.367,170.005-172.724,168.966C158.642,425.962,82.991,348.633,84.03,254.274z"/>
	<text transform="matrix(0.7386 -0.6741 0.6741 0.7386 123.7579 125.4356)"><tspan x="0" y="0" fill="#0E132F" font-family="'HoeflerText-Regular'" font-size="28">P</tspan><tspan x="24.032" y="0.343" fill="#0E132F" font-family="'HoeflerText-Regular'" font-size="28" rotate="7.865">R</tspan><tspan x="50.716" y="4.569" fill="#0E132F" font-family="'HoeflerText-Regular'" font-size="28" rotate="15.882">E</tspan><tspan x="74.232" y="11.795" fill="#0E132F" font-family="'HoeflerText-Regular'" font-size="28" rotate="22.916">S</tspan><tspan x="92.975" y="20.138" fill="#0E132F" font-family="'HoeflerText-Regular'" font-size="28" rotate="29.033">I</tspan><tspan x="109.41" y="29.344" fill="#0E132F" font-family="'HoeflerText-Regular'" font-size="28" rotate="36.549">D</tspan><tspan x="132.853" y="47.545" fill="#0E132F" font-family="'HoeflerText-Regular'" font-size="28" rotate="44.885">E</tspan><tspan x="150.258" y="65.26" fill="#0E132F" font-family="'HoeflerText-Regular'" font-size="28" rotate="53.446">N</tspan><tspan x="167.991" y="90.315" fill="#0E132F" font-family="'HoeflerText-Regular'" font-size="28" rotate="62.363">T</tspan><tspan x="179.635" y="113.898" fill="#0E132F" font-family="'HoeflerText-Regular'" font-size="28" rotate="69.385">I</tspan><tspan x="186.117" y="131.542" fill="#0E132F" font-family="'HoeflerText-Regular'" font-size="28" rotate="76.476">A</tspan><tspan x="191.898" y="157.963" fill="#0E132F" font-family="'HoeflerText-Regular'" font-size="28" rotate="84.321">L</tspan></text>
	<path fill="none" d="M433.966,253.639c1.953,98.572-76.363,180.049-174.928,182.002c-98.559,1.955-180.049-76.369-182.003-174.927
		c-1.952-98.564,76.367-180.05,174.927-182.001C350.53,76.757,432.015,155.075,433.966,253.639z"/>
	<text transform="matrix(0.6251 0.7806 -0.7806 0.6251 94.2541 381.5209)"><tspan x="0" y="0" fill="#0E132F" font-family="'Verlag-Bold'" font-size="30">I</tspan><tspan x="12.147" y="0.059" fill="#0E132F" font-family="'Verlag-Bold'" font-size="30" rotate="-5.158">N</tspan><tspan x="37.369" y="-2.569" fill="#0E132F" font-family="'Verlag-Bold'" font-size="30" rotate="-12.252">N</tspan><tspan x="62.116" y="-8.277" fill="#0E132F" font-family="'Verlag-Bold'" font-size="30" rotate="-19.502">O</tspan><tspan x="86.62" y="-17.424" fill="#0E132F" font-family="'Verlag-Bold'" font-size="30" rotate="-26.316">V</tspan><tspan x="106.365" y="-27.481" fill="#0E132F" font-family="'Verlag-Bold'" font-size="30" rotate="-32.811">A</tspan><tspan x="126.038" y="-40.619" fill="#0E132F" font-family="'Verlag-Bold'" font-size="30" rotate="-39.023">T</tspan><tspan x="141.105" y="-53.262" fill="#0E132F" font-family="'Verlag-Bold'" font-size="30" rotate="-43.49">I</tspan><tspan x="150.008" y="-61.6" fill="#0E132F" font-family="'Verlag-Bold'" font-size="30" rotate="-48.804">O</tspan><tspan x="167.038" y="-81.634" fill="#0E132F" font-family="'Verlag-Bold'" font-size="30" rotate="-55.971">N</tspan><tspan x="180.425" y="-102.373" fill="#0E132F" font-family="'Verlag-Bold'" font-size="30" rotate="-61.021"> </tspan><tspan x="185.749" y="-112.029" fill="#0E132F" font-family="'Verlag-Bold'" font-size="30" rotate="-65.299">F</tspan><tspan x="193.772" y="-130.061" fill="#0E132F" font-family="'Verlag-Bold'" font-size="30" rotate="-70.91">E</tspan><tspan x="200.019" y="-148.916" fill="#0E132F" font-family="'Verlag-Bold'" font-size="30" rotate="-76.446">L</tspan><tspan x="204.289" y="-167.648" fill="#0E132F" font-family="'Verlag-Bold'" font-size="30" rotate="-81.868">L</tspan><tspan x="206.934" y="-187.001" fill="#0E132F" font-family="'Verlag-Bold'" font-size="30" rotate="-88.272">O</tspan><tspan x="207.481" y="-213.61" fill="#0E132F" font-family="'Verlag-Bold'" font-size="30" rotate="-96.379">W</tspan><tspan x="203.355" y="-244.341" fill="#0E132F" font-family="'Verlag-Bold'" font-size="30" rotate="-103.578">S</tspan></text>
	<g>
		
			<use xlink:href="#New_Symbol"  width="17.742" height="16.926" x="-8.871" y="-8.463" transform="matrix(0.6142 0.4755 0.4755 -0.6142 105.1953 140.3521)" overflow="visible"/>
		
			<use xlink:href="#New_Symbol"  width="17.742" height="16.926" x="-8.871" y="-8.463" transform="matrix(0.6688 0.395 0.395 -0.6688 91.3252 160.2832)" overflow="visible"/>
		
			<use xlink:href="#New_Symbol"  width="17.742" height="16.926" x="-8.871" y="-8.463" transform="matrix(0.7134 0.3072 0.3072 -0.7134 80.0073 182.1377)" overflow="visible"/>
		
			<use xlink:href="#New_Symbol"  width="17.742" height="16.926" x="-8.871" y="-8.463" transform="matrix(0.747 0.2131 0.2131 -0.747 71.5185 205.459)" overflow="visible"/>
		
			<use xlink:href="#New_Symbol"  width="17.742" height="16.926" id="XMLID_2_" x="-8.871" y="-8.463" transform="matrix(0.7684 0.1141 0.1141 -0.7684 66.4878 230.0073)" overflow="visible"/>
		
			<use xlink:href="#New_Symbol"  width="17.742" height="16.926" x="-8.871" y="-8.463" transform="matrix(0.7766 0.0119 0.0119 -0.7766 64.6464 255.5777)" overflow="visible"/>
		
			<use xlink:href="#New_Symbol"  width="17.742" height="16.926" x="-8.871" y="-8.463" transform="matrix(0.7714 -0.0905 -0.0905 -0.7714 66.146 281.1133)" overflow="visible"/>
		
			<use xlink:href="#New_Symbol"  width="17.742" height="16.926" x="-8.871" y="-8.463" transform="matrix(0.753 -0.1908 -0.1908 -0.753 70.8867 305.5039)" overflow="visible"/>
		
			<use xlink:href="#New_Symbol"  width="17.742" height="16.926" x="-8.871" y="-8.463" transform="matrix(0.722 -0.2864 -0.2864 -0.722 78.4814 328.6817)" overflow="visible"/>
		
			<use xlink:href="#New_Symbol"  width="17.742" height="16.926" x="-8.871" y="-8.463" transform="matrix(-0.7316 -0.2609 -0.2609 0.7316 437.4355 323.7949)" overflow="visible"/>
		
			<use xlink:href="#New_Symbol"  width="17.742" height="16.926" x="-8.871" y="-8.463" transform="matrix(-0.7592 -0.1641 -0.1641 0.7592 444.1894 299.834)" overflow="visible"/>
		
			<use xlink:href="#New_Symbol"  width="17.742" height="16.926" x="-8.871" y="-8.463" transform="matrix(-0.7741 -0.0633 -0.0633 0.7741 447.6533 274.7481)" overflow="visible"/>
		
			<use xlink:href="#New_Symbol"  width="17.742" height="16.926" id="XMLID_1_" x="-8.871" y="-8.463" transform="matrix(-0.7757 0.0393 0.0393 0.7757 447.832 248.9014)" overflow="visible"/>
		
			<use xlink:href="#New_Symbol"  width="17.742" height="16.926" x="-8.871" y="-8.463" transform="matrix(-0.7638 0.141 0.141 0.7638 444.6904 223.9746)" overflow="visible"/>
		
			<use xlink:href="#New_Symbol"  width="17.742" height="16.926" x="-8.871" y="-8.463" transform="matrix(-0.739 0.2392 0.2392 0.739 438.4101 200.1665)" overflow="visible"/>
		
			<use xlink:href="#New_Symbol"  width="17.742" height="16.926" id="XMLID_3_" x="-8.871" y="-8.463" transform="matrix(-0.7022 0.332 0.332 0.7022 429.6591 177.6636)" overflow="visible"/>
		
			<use xlink:href="#New_Symbol"  width="17.742" height="16.926" x="-8.871" y="-8.463" transform="matrix(-0.6546 0.4182 0.4182 0.6546 418.2988 156.688)" overflow="visible"/>
		
			<use xlink:href="#New_Symbol"  width="17.742" height="16.926" x="-8.871" y="-8.463" transform="matrix(-0.5971 0.4968 0.4968 0.5971 404.4336 137.2759)" overflow="visible"/>
	</g>
	<g>
		<defs>
			<path id="SVGID_1_" d="M409.663,217.969c20.728,85.143-31.491,170.968-116.634,191.695
				c-85.142,20.727-170.966-31.494-191.693-116.637c-20.727-85.14,31.492-170.964,116.635-191.691
				C303.112,80.609,388.936,132.828,409.663,217.969z"/>
		</defs>
		<clipPath id="SVGID_2_">
			<use xlink:href="#SVGID_1_"  overflow="visible"/>
		</clipPath>
		<g opacity="0.12" clip-path="url(#SVGID_2_)">
			<g>
				<g>
					<path fill="#0E132F" d="M29.492,213.019c0,0,0.925,0.688,2.66,1.979c1.729,1.298,4.292,3.168,7.501,5.615
						c6.42,4.891,15.663,11.789,26.625,20.228c5.478,4.224,11.412,8.8,17.688,13.64c6.253,4.869,12.848,10.003,19.67,15.314
						c6.796,5.344,13.856,10.82,20.963,16.467c7.117,5.636,14.346,11.36,21.576,17.086c7.201,5.761,14.401,11.522,21.49,17.192
						c7.101,5.654,14.018,11.31,20.75,16.735c6.706,5.457,13.188,10.732,19.336,15.734c6.124,5.031,11.914,9.788,17.259,14.179
						c5.346,4.39,10.208,8.461,14.517,12.072c4.311,3.607,8.069,6.752,11.165,9.342c3.104,2.579,5.5,4.657,7.152,6.053
						c1.647,1.401,2.525,2.148,2.525,2.148s-0.926-0.688-2.66-1.979c-1.73-1.298-4.293-3.168-7.503-5.614
						c-3.218-2.436-7.125-5.393-11.607-8.785c-4.485-3.389-9.543-7.215-15.02-11.44c-5.478-4.224-11.412-8.8-17.688-13.64
						c-6.253-4.868-12.848-10.003-19.67-15.314c-6.796-5.345-13.858-10.816-20.961-16.469c-7.116-5.636-14.346-11.361-21.574-17.087
						c-7.201-5.762-14.401-11.523-21.489-17.195c-7.097-5.659-14.017-11.311-20.748-16.736
						c-6.706-5.457-13.188-10.733-19.336-15.735c-6.124-5.031-11.914-9.788-17.259-14.179
						c-10.682-8.791-19.477-16.251-25.684-21.411c-3.104-2.579-5.501-4.658-7.153-6.052
						C30.37,213.766,29.492,213.019,29.492,213.019z"/>
					<path fill="#0E132F" d="M6.861,246.62c0,0,0.977,0.556,2.807,1.597c1.826,1.049,4.527,2.551,7.92,4.536
						c6.787,3.967,16.542,9.537,28.141,16.396c5.796,3.435,12.076,7.155,18.717,11.091c6.622,3.966,13.606,8.149,20.83,12.477
						c7.203,4.362,14.677,8.82,22.215,13.44c7.546,4.608,15.212,9.288,22.879,13.969c7.642,4.721,15.284,9.44,22.807,14.086
						c7.533,4.628,14.887,9.282,22.035,13.732c7.127,4.486,14.017,8.823,20.55,12.936c6.532,4.113,12.683,8.044,18.356,11.678
						c5.686,3.614,10.866,6.98,15.455,9.966c4.593,2.981,8.597,5.58,11.893,7.721c3.304,2.129,5.865,3.858,7.627,5.013
						c1.757,1.162,2.693,1.782,2.693,1.782s-0.977-0.556-2.808-1.597c-1.826-1.049-4.527-2.551-7.92-4.535
						c-3.4-1.973-7.529-4.367-12.266-7.115c-4.738-2.743-10.082-5.841-15.878-9.277c-5.807-3.417-12.095-7.124-18.717-11.091
						c-6.623-3.967-13.606-8.15-20.83-12.478c-7.202-4.363-14.679-8.816-22.214-13.442c-7.546-4.608-15.212-9.29-22.878-13.971
						c-7.642-4.721-15.283-9.441-22.806-14.088c-7.53-4.634-14.886-9.283-22.035-13.735c-7.126-4.486-14.016-8.822-20.549-12.936
						c-6.514-4.144-12.672-8.061-18.357-11.677c-11.363-7.243-20.742-13.425-27.35-17.684c-3.305-2.128-5.866-3.858-7.627-5.012
						C7.798,247.24,6.861,246.62,6.861,246.62z"/>
				</g>
			</g>
			<g>
				<g>
					<path fill="#0E132F" d="M51.567,184.596c0,0,0.875,0.811,2.515,2.332c1.634,1.527,4.061,3.736,7.091,6.608
						c6.06,5.743,14.798,13.866,25.139,23.759c5.166,4.951,10.763,10.315,16.682,15.988c5.894,5.699,12.109,11.709,18.539,17.927
						c6.403,6.244,13.02,12.696,19.744,19.251c6.698,6.582,13.503,13.268,20.308,19.954c6.772,6.719,13.545,13.438,20.211,20.052
						c6.682,6.599,13.175,13.176,19.504,19.495c6.298,6.351,12.387,12.488,18.161,18.31c5.747,5.847,11.182,11.375,16.198,16.479
						c5.018,5.102,9.574,9.82,13.611,14.007c4.04,4.182,7.563,7.827,10.463,10.83c2.91,2.993,5.15,5.392,6.697,7.007
						c1.541,1.622,2.363,2.486,2.363,2.486s-0.875-0.811-2.516-2.331c-1.635-1.527-4.062-3.736-7.092-6.608
						c-3.039-2.862-6.729-6.338-10.963-10.324c-4.236-3.983-9.014-8.48-14.179-13.433c-5.166-4.951-10.763-10.314-16.683-15.987
						c-5.894-5.7-12.108-11.71-18.538-17.928c-6.399-6.247-13.059-12.656-19.741-19.254c-6.698-6.582-13.503-13.268-20.307-19.955
						c-6.772-6.72-13.544-13.439-20.21-20.053c-6.641-6.64-13.176-13.174-19.502-19.498c-6.298-6.35-12.387-12.488-18.16-18.31
						c-5.748-5.847-11.183-11.375-16.199-16.478c-10.024-10.214-18.257-18.848-24.077-24.835c-2.911-2.992-5.15-5.392-6.698-7.006
						C52.389,185.46,51.567,184.596,51.567,184.596z"/>
				</g>
			</g>
			<g>
				<g>
					<path fill="#0E132F" d="M76.838,155.601c0,0,0.797,0.935,2.291,2.687c1.487,1.758,3.703,4.309,6.456,7.609
						c5.508,6.599,13.466,15.954,22.854,27.31c4.69,5.681,9.771,11.836,15.144,18.346c5.345,6.533,10.982,13.422,16.812,20.549
						c5.802,7.15,11.797,14.539,17.889,22.046c6.063,7.53,12.224,15.179,18.384,22.829c6.125,7.679,12.249,15.357,18.277,22.915
						c6.046,7.545,11.903,15.043,17.622,22.26c5.686,7.243,11.182,14.245,16.394,20.885c5.183,6.663,10.083,12.962,14.606,18.777
						c4.524,5.814,8.625,11.181,12.257,15.94c3.636,4.756,6.805,8.902,9.415,12.317c2.621,3.406,4.628,6.124,6.02,7.959
						c1.384,1.841,2.122,2.822,2.122,2.822s-0.797-0.935-2.292-2.686c-1.488-1.757-3.703-4.309-6.457-7.608
						c-2.764-3.291-6.12-7.288-9.971-11.872c-3.854-4.582-8.198-9.753-12.887-15.435c-4.689-5.681-9.77-11.836-15.143-18.346
						c-5.345-6.532-10.982-13.422-16.812-20.549c-5.798-7.153-11.84-14.504-17.887-22.048c-6.063-7.53-12.223-15.18-18.383-22.83
						c-6.124-7.679-12.247-15.357-18.275-22.915c-6.001-7.581-11.905-15.042-17.62-22.262c-5.685-7.243-11.181-14.245-16.392-20.885
						c-5.183-6.663-10.083-12.962-14.607-18.777c-9.037-11.637-16.434-21.442-21.675-28.255c-2.621-3.406-4.628-6.124-6.02-7.958
						C77.577,156.583,76.838,155.601,76.838,155.601z"/>
				</g>
			</g>
			<g>
				<g>
					<path fill="#0E132F" d="M130.369,112.871c0,0,0.635,1.086,1.824,3.122c1.182,2.04,2.954,5.011,5.133,8.833
						c4.361,7.644,10.692,18.509,18.109,31.645c3.703,6.571,7.715,13.69,11.958,21.219c4.211,7.547,8.651,15.505,13.245,23.738
						c4.561,8.251,9.273,16.777,14.062,25.44c4.758,8.681,9.591,17.499,14.424,26.317c4.792,8.841,9.585,17.681,14.303,26.383
						c4.736,8.692,9.295,17.303,13.762,25.605c4.431,8.322,8.713,16.367,12.773,23.995c4.028,7.647,7.837,14.876,11.352,21.549
						c3.518,6.673,6.689,12.817,9.496,18.267c2.812,5.446,5.264,10.193,7.283,14.104c2.031,3.904,3.568,7.003,4.642,9.103
						c1.065,2.102,1.634,3.225,1.634,3.225s-0.635-1.086-1.825-3.121c-1.183-2.04-2.954-5.011-5.134-8.833
						c-2.192-3.815-4.853-8.449-7.907-13.764c-3.058-5.312-6.503-11.309-10.205-17.88c-3.703-6.571-7.715-13.689-11.958-21.219
						c-4.21-7.548-8.65-15.506-13.244-23.739c-4.557-8.253-9.322-16.75-14.061-25.441c-4.757-8.681-9.589-17.499-14.422-26.318
						c-4.792-8.841-9.584-17.682-14.301-26.384c-4.686-8.72-9.297-17.301-13.76-25.605c-4.43-8.322-8.712-16.367-12.772-23.996
						c-4.028-7.646-7.838-14.876-11.354-21.549c-7.021-13.352-12.721-24.561-16.781-32.369c-2.032-3.903-3.568-7.002-4.642-9.101
						C130.937,113.992,130.369,112.871,130.369,112.871z"/>
					<path fill="#0E132F" d="M104.408,130.516c0,0,0.718,1.018,2.065,2.925c1.339,1.913,3.339,4.694,5.814,8.282
						c4.951,7.173,12.12,17.358,20.55,29.693c4.21,6.17,8.771,12.855,13.595,19.926c4.794,7.091,9.85,14.568,15.079,22.304
						c5.198,7.756,10.569,15.771,16.028,23.915c5.428,8.163,10.942,16.456,16.457,24.75c5.477,8.319,10.952,16.638,16.343,24.826
						c5.409,8.177,10.634,16.289,15.743,24.104c5.074,7.839,9.978,15.415,14.63,22.6c4.62,7.205,8.989,14.019,13.021,20.307
						c4.033,6.287,7.681,12.084,10.911,17.225c3.234,5.137,6.054,9.615,8.375,13.304c2.334,3.681,4.111,6.609,5.348,8.591
						c1.229,1.986,1.884,3.045,1.884,3.045s-0.719-1.017-2.065-2.925c-1.34-1.913-3.34-4.694-5.815-8.281
						c-2.485-3.58-5.505-7.926-8.968-12.912c-3.468-4.983-7.376-10.607-11.585-16.778c-4.21-6.171-8.771-12.857-13.596-19.927
						c-4.794-7.091-9.849-14.568-15.077-22.305c-5.194-7.759-10.616-15.74-16.026-23.916c-5.428-8.164-10.942-16.457-16.456-24.751
						c-5.476-8.319-10.951-16.638-16.342-24.827c-5.36-8.209-10.635-16.288-15.74-24.105c-5.073-7.838-9.979-15.415-14.629-22.601
						c-4.621-7.206-8.989-14.018-13.022-20.307c-8.055-12.584-14.623-23.164-19.289-30.526c-2.334-3.681-4.111-6.609-5.348-8.59
						C105.064,131.575,104.408,130.516,104.408,130.516z"/>
				</g>
			</g>
			<g>
				<g>
					<path fill="#0E132F" d="M174.49,88.983c0,0,0.507,1.166,1.458,3.354c0.941,2.19,2.364,5.387,4.095,9.487
						c3.464,8.2,8.519,19.87,14.394,33.952c2.932,7.043,6.107,14.673,9.467,22.743c3.325,8.083,6.832,16.608,10.459,25.427
						c3.593,8.833,7.306,17.96,11.078,27.233c3.739,9.287,7.538,18.722,11.336,28.157c3.756,9.452,7.512,18.904,11.209,28.209
						c3.718,9.296,7.267,18.488,10.76,27.36c3.455,8.888,6.794,17.479,9.961,25.626c3.132,8.161,6.094,15.877,8.827,22.999
						c2.735,7.121,5.186,13.672,7.356,19.479c2.174,5.806,4.069,10.867,5.63,15.035c1.573,4.163,2.748,7.458,3.575,9.695
						c0.819,2.239,1.257,3.434,1.257,3.434s-0.507-1.166-1.458-3.354c-0.943-2.19-2.365-5.387-4.097-9.486
						c-1.744-4.096-3.861-9.067-6.29-14.772c-2.434-5.701-5.176-12.136-8.106-19.18c-2.932-7.043-6.108-14.673-9.467-22.742
						c-3.325-8.084-6.831-16.609-10.459-25.428c-3.588-8.834-7.356-17.938-11.075-27.234c-3.738-9.287-7.536-18.722-11.334-28.157
						c-3.756-9.452-7.511-18.904-11.207-28.209c-3.664-9.317-7.269-18.487-10.758-27.361c-3.454-8.888-6.793-17.48-9.96-25.627
						c-3.132-8.161-6.094-15.876-8.827-22.999c-5.456-14.248-9.844-26.186-12.989-34.513c-1.574-4.162-2.749-7.458-3.577-9.695
						C174.928,90.177,174.49,88.983,174.49,88.983z"/>
					<path fill="#0E132F" d="M153.108,99.351c0,0,0.572,1.129,1.645,3.247c1.064,2.121,2.664,5.214,4.623,9.187
						c3.92,7.944,9.624,19.243,16.282,32.891c3.323,6.826,6.924,14.221,10.732,22.042c3.775,7.837,7.757,16.102,11.875,24.651
						c4.085,8.565,8.306,17.417,12.595,26.41c4.256,9.009,8.58,18.161,12.904,27.313c4.282,9.172,8.565,18.343,12.78,27.371
						c4.235,9.02,8.297,17.945,12.284,26.557c3.95,8.629,7.769,16.97,11.389,24.88c3.588,7.925,6.979,15.418,10.109,22.335
						c3.133,6.916,5.949,13.281,8.442,18.925c2.498,5.642,4.676,10.56,6.469,14.61c1.806,4.044,3.164,7.25,4.116,9.424
						c0.944,2.178,1.448,3.339,1.448,3.339s-0.572-1.129-1.645-3.246c-1.065-2.121-2.665-5.214-4.624-9.187
						c-1.972-3.966-4.366-8.782-7.112-14.307c-2.751-5.523-5.852-11.755-9.173-18.582c-3.324-6.826-6.925-14.221-10.733-22.043
						c-3.775-7.837-7.756-16.102-11.874-24.651c-4.08-8.567-8.355-17.393-12.593-26.411c-4.256-9.01-8.579-18.162-12.902-27.314
						c-4.282-9.172-8.563-18.344-12.778-27.372c-4.183-9.044-8.299-17.944-12.282-26.557c-3.95-8.629-7.768-16.971-11.388-24.88
						c-3.588-7.925-6.979-15.418-10.109-22.335c-6.251-13.838-11.305-25.444-14.914-33.533c-1.807-4.044-3.165-7.25-4.117-9.424
						C153.612,100.512,153.108,99.351,153.108,99.351z"/>
				</g>
			</g>
			<g>
				<g>
					<path fill="#0E132F" d="M220.641,72.731c0,0,0.366,1.223,1.053,3.516c0.678,2.295,1.715,5.65,2.951,9.942
						c2.475,8.584,6.122,20.816,10.299,35.548c2.083,7.368,4.34,15.349,6.727,23.792c2.351,8.452,4.83,17.364,7.396,26.584
						c2.528,9.229,5.142,18.767,7.797,28.458c2.621,9.7,5.283,19.554,7.945,29.409c2.618,9.866,5.236,19.732,7.812,29.444
						c2.598,9.707,5.041,19.29,7.467,28.547c2.385,9.268,4.69,18.228,6.877,26.723c2.15,8.506,4.184,16.547,6.06,23.97
						c1.879,7.423,3.542,14.242,5.014,20.287c1.476,6.044,2.763,11.314,3.822,15.653c1.073,4.336,1.852,7.76,2.41,10.087
						c0.55,2.329,0.844,3.571,0.844,3.571s-0.366-1.223-1.054-3.516c-0.679-2.295-1.715-5.649-2.952-9.941
						c-1.25-4.289-2.768-9.496-4.509-15.469c-1.746-5.973-3.713-12.711-5.794-20.079c-2.082-7.367-4.339-15.349-6.725-23.791
						c-2.351-8.451-4.83-17.364-7.395-26.584c-2.524-9.231-5.195-18.753-7.795-28.459c-2.62-9.7-5.282-19.555-7.943-29.409
						c-2.617-9.866-5.234-19.732-7.811-29.445c-2.542-9.721-5.044-19.289-7.464-28.547c-2.385-9.268-4.69-18.227-6.876-26.724
						c-2.15-8.505-4.184-16.546-6.061-23.969c-3.742-14.849-6.694-27.267-8.839-35.939c-1.073-4.336-1.852-7.76-2.411-10.087
						C220.934,73.973,220.641,72.731,220.641,72.731z"/>
					<path fill="#0E132F" d="M197.392,79.672c0,0,0.438,1.199,1.258,3.448c0.811,2.252,2.043,5.54,3.528,9.752
						c2.975,8.424,7.333,20.422,12.368,34.885c2.511,7.233,5.232,15.069,8.109,23.357c2.844,8.299,5.842,17.052,8.943,26.105
						c3.065,9.066,6.234,18.434,9.453,27.953c3.186,9.53,6.422,19.212,9.657,28.894c3.192,9.696,6.385,19.392,9.527,28.937
						c3.162,9.538,6.164,18.961,9.128,28.061c2.925,9.113,5.752,17.922,8.433,26.275c2.646,8.364,5.147,16.273,7.457,23.573
						c2.311,7.3,4.371,14.011,6.194,19.96c1.828,5.947,3.422,11.132,4.734,15.401c1.326,4.267,2.304,7.639,2.998,9.929
						c0.686,2.294,1.052,3.517,1.052,3.517s-0.438-1.199-1.258-3.448c-0.812-2.251-2.044-5.539-3.53-9.752
						c-1.5-4.207-3.32-9.317-5.409-15.178c-2.094-5.859-4.452-12.472-6.962-19.705c-2.512-7.233-5.232-15.069-8.11-23.358
						c-2.843-8.299-5.841-17.052-8.941-26.105c-3.062-9.067-6.287-18.417-9.451-27.954c-3.185-9.53-6.42-19.212-9.655-28.894
						c-3.191-9.696-6.384-19.393-9.525-28.937c-3.107-9.556-6.166-18.96-9.126-28.061c-2.924-9.113-5.751-17.922-8.432-26.275
						c-2.646-8.365-5.148-16.273-7.457-23.574c-4.607-14.604-8.282-26.829-10.932-35.36c-1.326-4.266-2.305-7.638-2.999-9.928
						C197.758,80.896,197.392,79.672,197.392,79.672z"/>
				</g>
			</g>
			<g>
				<g>
					<path fill="#0E132F" d="M268.593,64.686c0,0,0.219,1.247,0.629,3.585c0.4,2.339,1.031,5.765,1.75,10.136
						c1.439,8.742,3.609,21.214,6.01,36.21c1.194,7.499,2.488,15.623,3.857,24.216c1.332,8.598,2.736,17.665,4.189,27.044
						c1.417,9.385,2.88,19.083,4.367,28.937c1.451,9.859,2.926,19.875,4.4,29.891c1.429,10.022,2.858,20.044,4.265,29.91
						c1.429,9.863,2.718,19.585,4.028,28.986c1.268,9.406,2.495,18.499,3.658,27.121c1.126,8.628,2.19,16.785,3.174,24.314
						c0.985,7.529,1.828,14.439,2.571,20.565c0.749,6.125,1.401,11.465,1.939,15.862c0.551,4.396,0.918,7.858,1.196,10.216
						c0.27,2.358,0.414,3.616,0.414,3.616s-0.219-1.247-0.629-3.585c-0.402-2.339-1.033-5.765-1.752-10.136
						c-0.732-4.369-1.622-9.675-2.643-15.76c-1.025-6.085-2.179-12.951-3.37-20.45c-1.194-7.499-2.488-15.623-3.857-24.216
						c-1.331-8.598-2.735-17.664-4.189-27.044c-1.411-9.386-2.934-19.074-4.364-28.937c-1.451-9.859-2.925-19.875-4.398-29.891
						c-1.429-10.022-2.857-20.045-4.263-29.91c-1.371-9.871-2.72-19.585-4.025-28.986c-1.269-9.406-2.494-18.499-3.657-27.122
						c-1.127-8.627-2.191-16.785-3.175-24.314c-1.954-15.061-3.413-27.636-4.514-36.428c-0.552-4.395-0.918-7.858-1.197-10.215
						C268.737,65.944,268.593,64.686,268.593,64.686z"/>
					<path fill="#0E132F" d="M244.468,67.609c0,0,0.295,1.239,0.847,3.561c0.544,2.324,1.384,5.725,2.369,10.069
						c1.973,8.689,4.904,21.079,8.22,35.989c1.651,7.456,3.44,15.533,5.333,24.077c1.857,8.551,3.815,17.568,5.841,26.896
						c1.989,9.336,4.045,18.983,6.133,28.785c2.054,9.81,4.14,19.775,6.226,29.741c2.041,9.975,4.082,19.95,6.091,29.768
						c2.03,9.815,3.913,19.497,5.797,28.855c1.844,9.366,3.625,18.419,5.314,27.005c1.653,8.593,3.217,16.717,4.659,24.216
						c1.445,7.499,2.71,14.386,3.828,20.49c1.123,6.103,2.101,11.424,2.907,15.806c0.82,4.379,1.398,7.834,1.821,10.183
						c0.414,2.352,0.635,3.605,0.635,3.605s-0.295-1.238-0.848-3.561c-0.545-2.323-1.385-5.724-2.37-10.068
						c-0.999-4.342-2.213-9.614-3.604-15.662c-1.397-6.047-2.968-12.87-4.618-20.326c-1.651-7.456-3.441-15.533-5.334-24.076
						c-1.856-8.552-3.814-17.568-5.84-26.896c-1.983-9.337-4.099-18.972-6.13-28.786c-2.053-9.81-4.138-19.776-6.224-29.741
						c-2.04-9.975-4.08-19.95-6.089-29.769c-1.974-9.826-3.915-19.497-5.795-28.855c-1.843-9.366-3.624-18.419-5.314-27.005
						c-1.653-8.593-3.217-16.717-4.659-24.216c-2.874-15.001-5.101-27.537-6.738-36.295c-0.82-4.379-1.398-7.833-1.822-10.183
						C244.688,68.863,244.468,67.609,244.468,67.609z"/>
				</g>
			</g>
			<g>
				<g>
					<path fill="#0E132F" d="M319.536,63.342c0,0,0.061,1.244,0.178,3.578c0.108,2.333,0.309,5.754,0.479,10.111
						c0.342,8.712,0.945,21.156,1.464,36.093c0.253,7.468,0.527,15.559,0.817,24.117c0.254,8.559,0.522,17.584,0.798,26.92
						c0.239,9.337,0.486,18.985,0.737,28.79c0.215,9.805,0.434,19.765,0.652,29.725c0.173,9.962,0.346,19.922,0.516,29.728
						c0.191,9.805,0.263,19.457,0.396,28.796c0.09,9.34,0.178,18.368,0.26,26.93c0.046,8.562,0.089,16.658,0.129,24.131
						c0.042,7.473,0.02,14.323-0.004,20.397c-0.018,6.072-0.033,11.366-0.047,15.726c0.001,4.36-0.065,7.786-0.082,10.122
						c-0.024,2.336-0.038,3.582-0.038,3.582s-0.063-1.244-0.179-3.577c-0.108-2.334-0.309-5.755-0.479-10.111
						c-0.184-4.355-0.407-9.645-0.663-15.712c-0.262-6.067-0.553-12.912-0.804-20.381c-0.254-7.469-0.528-15.56-0.818-24.117
						c-0.253-8.558-0.52-17.583-0.796-26.92c-0.234-9.337-0.542-18.984-0.735-28.789c-0.215-9.805-0.433-19.765-0.65-29.725
						c-0.173-9.961-0.345-19.922-0.514-29.728c-0.134-9.806-0.266-19.457-0.392-28.796c-0.09-9.34-0.177-18.369-0.26-26.93
						c-0.045-8.562-0.089-16.658-0.129-24.13c-0.067-14.946,0.048-27.403,0.048-36.123c-0.002-4.359,0.065-7.786,0.08-10.122
						C319.523,64.588,319.536,63.342,319.536,63.342z"/>
					<path fill="#0E132F" d="M294.94,63.427c0,0,0.137,1.248,0.394,3.588c0.248,2.341,0.655,5.771,1.087,10.142
						c0.867,8.744,2.221,21.226,3.64,36.22c0.703,7.497,1.466,15.62,2.272,24.211c0.769,8.594,1.581,17.657,2.42,27.032
						c0.803,9.378,1.631,19.069,2.474,28.917c0.807,9.85,1.626,19.857,2.445,29.863c0.773,10.01,1.547,20.02,2.309,29.874
						c0.782,9.852,1.436,19.557,2.132,28.943c0.653,9.391,1.285,18.468,1.885,27.075c0.561,8.61,1.094,16.751,1.584,24.266
						c0.493,7.515,0.884,14.408,1.228,20.519c0.348,6.109,0.651,11.435,0.901,15.822c0.264,4.385,0.404,7.836,0.529,10.187
						c0.116,2.352,0.178,3.605,0.178,3.605s-0.137-1.248-0.395-3.588c-0.248-2.341-0.655-5.77-1.088-10.142
						c-0.446-4.371-0.989-9.679-1.611-15.767c-0.626-6.087-1.33-12.955-2.031-20.453c-0.704-7.498-1.466-15.62-2.272-24.212
						c-0.768-8.594-1.58-17.656-2.419-27.032c-0.797-9.379-1.687-19.065-2.471-28.917c-0.806-9.85-1.624-19.856-2.443-29.863
						c-0.772-10.01-1.546-20.021-2.307-29.874c-0.725-9.856-1.439-19.557-2.129-28.944c-0.653-9.39-1.285-18.467-1.884-27.075
						c-0.562-8.61-1.094-16.751-1.585-24.266c-0.97-15.03-1.606-27.569-2.132-36.34c-0.265-4.385-0.405-7.836-0.53-10.187
						C295.003,64.681,294.94,63.427,294.94,63.427z"/>
				</g>
			</g>
			<g>
				<g>
					<path fill="#0E132F" d="M384.146,79.233c0,0-0.169,1.203-0.484,3.458c-0.324,2.253-0.758,5.566-1.394,9.768
						c-1.269,8.403-2.97,20.428-5.213,34.823c-1.128,7.196-2.35,14.992-3.642,23.238c-1.328,8.24-2.729,16.929-4.178,25.918
						c-1.485,8.982-3.02,18.264-4.581,27.696c-1.595,9.425-3.216,19.001-4.836,28.576c-1.666,9.567-3.332,19.135-4.972,28.553
						c-1.619,9.421-3.328,18.673-4.919,27.638c-1.633,8.957-3.211,17.615-4.707,25.826c-1.533,8.205-2.982,15.962-4.32,23.122
						c-1.336,7.16-2.62,13.714-3.762,19.522c-1.137,5.81-2.128,10.874-2.944,15.044c-0.803,4.173-1.499,7.44-1.946,9.674
						c-0.455,2.23-0.697,3.421-0.697,3.421s0.168-1.203,0.483-3.458c0.324-2.254,0.758-5.566,1.393-9.769
						c0.622-4.204,1.378-9.309,2.244-15.164c0.861-5.857,1.837-12.463,2.966-19.659c1.128-7.196,2.35-14.993,3.641-23.238
						c1.329-8.24,2.729-16.929,4.179-25.918c1.491-8.981,2.967-18.273,4.584-27.695c1.596-9.425,3.217-19,4.838-28.575
						c1.667-9.567,3.333-19.134,4.974-28.552c1.676-9.412,3.325-18.674,4.922-27.638c1.633-8.957,3.211-17.616,4.708-25.826
						c1.532-8.205,2.981-15.962,4.319-23.122c2.688-14.318,5.097-26.222,6.703-34.567c0.802-4.173,1.499-7.44,1.944-9.673
						C383.904,80.423,384.146,79.233,384.146,79.233z"/>
					<path fill="#0E132F" d="M352.997,71.651c0,0-0.063,1.231-0.184,3.539c-0.129,2.307-0.274,5.694-0.545,9.998
						c-0.538,8.608-1.193,20.915-2.185,35.666c-0.501,7.375-1.045,15.365-1.619,23.815c-0.611,8.448-1.256,17.356-1.923,26.572
						c-0.704,9.212-1.432,18.732-2.17,28.405c-0.775,9.67-1.563,19.494-2.35,29.318c-0.833,9.82-1.666,19.64-2.486,29.306
						c-0.799,9.669-1.701,19.173-2.512,28.378c-0.853,9.2-1.677,18.094-2.458,26.527c-0.818,8.431-1.592,16.401-2.307,23.759
						c-0.712,7.357-1.426,14.098-2.06,20.071c-0.631,5.974-1.181,11.182-1.634,15.471c-0.439,4.29-0.851,7.655-1.102,9.952
						c-0.261,2.296-0.4,3.52-0.4,3.52s0.064-1.23,0.183-3.539c0.128-2.307,0.274-5.694,0.544-9.998
						c0.256-4.305,0.567-9.532,0.925-15.529c0.352-5.997,0.753-12.762,1.256-20.137c0.502-7.376,1.045-15.365,1.62-23.815
						c0.611-8.448,1.256-17.357,1.923-26.572c0.709-9.212,1.376-18.736,2.174-28.405c0.775-9.67,1.563-19.494,2.351-29.318
						c0.834-9.82,1.668-19.64,2.488-29.306c0.857-9.664,1.699-19.173,2.515-28.377c0.853-9.2,1.677-18.094,2.459-26.527
						c0.818-8.431,1.592-16.401,2.306-23.759c1.441-14.714,2.811-26.962,3.691-35.542c0.438-4.29,0.85-7.655,1.102-9.952
						C352.858,72.876,352.997,71.651,352.997,71.651z"/>
				</g>
			</g>
			<g>
				<g>
					<path fill="#0E132F" d="M420.723,89.533c0,0-0.297,1.144-0.854,3.288c-0.566,2.142-1.354,5.295-2.44,9.284
						c-2.169,7.979-5.157,19.41-8.941,33.068c-1.897,6.828-3.953,14.224-6.127,22.047c-2.21,7.813-4.54,16.052-6.95,24.575
						c-2.446,8.513-4.974,17.31-7.542,26.248c-2.603,8.928-5.247,17.999-7.892,27.068c-2.688,9.057-5.377,18.114-8.022,27.03
						c-2.626,8.921-5.322,17.668-7.871,26.15c-2.589,8.471-5.092,16.659-7.466,24.424c-2.408,7.754-4.686,15.086-6.788,21.853
						c-2.101,6.769-4.084,12.955-5.846,18.438c-1.757,5.483-3.288,10.265-4.549,14.202c-1.248,3.941-2.293,7.02-2.978,9.126
						c-0.693,2.104-1.062,3.227-1.062,3.227s0.297-1.144,0.854-3.288c0.564-2.142,1.353-5.295,2.439-9.284
						c1.072-3.993,2.374-8.842,3.867-14.403c1.488-5.562,3.172-11.838,5.071-18.665c1.897-6.828,3.953-14.225,6.127-22.048
						c2.21-7.814,4.54-16.052,6.95-24.575c2.451-8.512,4.921-17.325,7.545-26.247c2.603-8.928,5.249-17.997,7.894-27.067
						c2.689-9.057,5.378-18.113,8.024-27.029c2.682-8.905,5.32-17.669,7.874-26.15c2.589-8.471,5.093-16.659,7.466-24.424
						c2.409-7.754,4.687-15.085,6.788-21.853c4.216-13.531,7.895-24.759,10.392-32.641c1.248-3.941,2.292-7.02,2.977-9.127
						C420.353,90.655,420.723,89.533,420.723,89.533z"/>
				</g>
			</g>
			<g>
				<g>
					<path fill="#0E132F" d="M459.285,106.962c0,0-0.425,1.052-1.222,3.025c-0.805,1.969-1.944,4.875-3.475,8.539
						c-3.057,7.329-7.319,17.845-12.623,30.381c-2.657,6.266-5.536,13.053-8.58,20.232c-3.078,7.164-6.324,14.72-9.683,22.535
						c-3.395,7.799-6.852,15.882-10.459,24.052c-3.595,8.176-7.246,16.482-10.897,24.788c-3.694,8.287-7.388,16.575-11.023,24.732
						c-3.616,8.167-7.283,16.156-10.772,23.913c-3.528,7.74-6.939,15.223-10.174,22.318c-3.235,7.095-6.34,13.782-9.21,19.953
						c-2.851,6.18-5.52,11.82-7.888,16.818c-2.363,5-4.424,9.359-6.121,12.949c-1.685,3.595-3.069,6.394-3.987,8.312
						c-0.926,1.916-1.419,2.938-1.419,2.938s0.425-1.053,1.221-3.025c0.804-1.97,1.944-4.876,3.474-8.54
						c1.517-3.669,3.358-8.125,5.472-13.236c2.108-5.113,4.489-10.881,7.148-17.145c2.639-6.274,5.503-13.067,8.58-20.232
						c3.079-7.164,6.325-14.72,9.684-22.535c3.396-7.799,6.847-15.884,10.461-24.051c3.596-8.176,7.248-16.481,10.899-24.787
						c3.694-8.287,7.389-16.574,11.025-24.731c3.623-8.164,7.283-16.156,10.774-23.913c3.529-7.74,6.94-15.222,10.175-22.317
						c3.269-7.08,6.358-13.774,9.21-19.954c5.716-12.354,10.636-22.579,14.006-29.769c1.684-3.596,3.068-6.394,3.985-8.313
						C458.792,107.984,459.285,106.962,459.285,106.962z"/>
				</g>
			</g>
		</g>
	</g>
	<circle fill="none" cx="945.54" cy="177.339" r="180.576"/>
	<g>
		<path fill="#FFFFFF" d="M946.185,414.046c-88.73,0-160.918-72.188-160.918-160.917c0-88.73,72.188-160.917,160.918-160.917
			c88.728,0,160.916,72.187,160.916,160.917C1107.1,341.858,1034.913,414.046,946.185,414.046z M946.185,94.711
			c-87.352,0-158.418,71.065-158.418,158.417c0,87.351,71.066,158.417,158.418,158.417c87.352,0,158.416-71.066,158.416-158.417
			C1104.6,165.777,1033.536,94.711,946.185,94.711z"/>
	</g>
	<g>
		<path fill="#FFFFFF" d="M946.185,423.962c-94.197,0-170.834-76.635-170.834-170.834c0-94.198,76.637-170.834,170.834-170.834
			c94.197,0,170.834,76.636,170.834,170.834C1117.019,347.327,1040.382,423.962,946.185,423.962z M946.185,88.295
			c-90.891,0-164.834,73.944-164.834,164.834c0,90.89,73.943,164.834,164.834,164.834c90.889,0,164.834-73.943,164.834-164.834
			C1111.019,162.239,1037.073,88.295,946.185,88.295z"/>
	</g>
	<path fill="#0E132F" d="M887.702,266.788"/>
	<path fill="none" d="M774.714,251.274c1.037-94.352,78.365-170.001,172.721-168.966c94.353,1.035,170.006,78.367,168.969,172.723
		c-1.039,94.355-78.367,170.005-172.723,168.966C849.325,422.962,773.675,345.633,774.714,251.274z"/>
	<text transform="matrix(0.7386 -0.6741 0.6741 0.7386 814.442 122.4352)"><tspan x="0" y="0" fill="#FFFFFF" font-family="'HoeflerText-Regular'" font-size="28">P</tspan><tspan x="24.032" y="0.344" fill="#FFFFFF" font-family="'HoeflerText-Regular'" font-size="28" rotate="7.865">R</tspan><tspan x="50.716" y="4.57" fill="#FFFFFF" font-family="'HoeflerText-Regular'" font-size="28" rotate="15.883">E</tspan><tspan x="74.232" y="11.795" fill="#FFFFFF" font-family="'HoeflerText-Regular'" font-size="28" rotate="22.916">S</tspan><tspan x="92.974" y="20.138" fill="#FFFFFF" font-family="'HoeflerText-Regular'" font-size="28" rotate="29.033">I</tspan><tspan x="109.41" y="29.344" fill="#FFFFFF" font-family="'HoeflerText-Regular'" font-size="28" rotate="36.549">D</tspan><tspan x="132.852" y="47.544" fill="#FFFFFF" font-family="'HoeflerText-Regular'" font-size="28" rotate="44.884">E</tspan><tspan x="150.257" y="65.259" fill="#FFFFFF" font-family="'HoeflerText-Regular'" font-size="28" rotate="53.445">N</tspan><tspan x="167.991" y="90.313" fill="#FFFFFF" font-family="'HoeflerText-Regular'" font-size="28" rotate="62.363">T</tspan><tspan x="179.635" y="113.897" fill="#FFFFFF" font-family="'HoeflerText-Regular'" font-size="28" rotate="69.385">I</tspan><tspan x="186.116" y="131.541" fill="#FFFFFF" font-family="'HoeflerText-Regular'" font-size="28" rotate="76.476">A</tspan><tspan x="191.897" y="157.962" fill="#FFFFFF" font-family="'HoeflerText-Regular'" font-size="28" rotate="84.321">L</tspan></text>
	<path fill="none" d="M1124.649,250.639c1.953,98.572-76.363,180.049-174.928,182.002c-98.559,1.955-180.049-76.369-182.004-174.927
		c-1.951-98.564,76.367-180.05,174.928-182.001C1041.214,73.757,1122.698,152.075,1124.649,250.639z"/>
	<text transform="matrix(0.6251 0.7806 -0.7806 0.6251 784.9382 378.5209)"><tspan x="0" y="0" fill="#FFFFFF" font-family="'Verlag-Bold'" font-size="30">I</tspan><tspan x="12.147" y="0.059" fill="#FFFFFF" font-family="'Verlag-Bold'" font-size="30" rotate="-5.158">N</tspan><tspan x="37.37" y="-2.567" fill="#FFFFFF" font-family="'Verlag-Bold'" font-size="30" rotate="-12.253">N</tspan><tspan x="62.116" y="-8.277" fill="#FFFFFF" font-family="'Verlag-Bold'" font-size="30" rotate="-19.502">O</tspan><tspan x="86.619" y="-17.424" fill="#FFFFFF" font-family="'Verlag-Bold'" font-size="30" rotate="-26.316">V</tspan><tspan x="106.365" y="-27.48" fill="#FFFFFF" font-family="'Verlag-Bold'" font-size="30" rotate="-32.812">A</tspan><tspan x="126.039" y="-40.618" fill="#FFFFFF" font-family="'Verlag-Bold'" font-size="30" rotate="-39.024">T</tspan><tspan x="141.105" y="-53.263" fill="#FFFFFF" font-family="'Verlag-Bold'" font-size="30" rotate="-43.49">I</tspan><tspan x="150.01" y="-61.601" fill="#FFFFFF" font-family="'Verlag-Bold'" font-size="30" rotate="-48.805">O</tspan><tspan x="167.038" y="-81.634" fill="#FFFFFF" font-family="'Verlag-Bold'" font-size="30" rotate="-55.972">N</tspan><tspan x="180.425" y="-102.374" fill="#FFFFFF" font-family="'Verlag-Bold'" font-size="30" rotate="-61.021"> </tspan><tspan x="185.749" y="-112.029" fill="#FFFFFF" font-family="'Verlag-Bold'" font-size="30" rotate="-65.299">F</tspan><tspan x="193.771" y="-130.061" fill="#FFFFFF" font-family="'Verlag-Bold'" font-size="30" rotate="-70.91">E</tspan><tspan x="200.019" y="-148.917" fill="#FFFFFF" font-family="'Verlag-Bold'" font-size="30" rotate="-76.447">L</tspan><tspan x="204.288" y="-167.649" fill="#FFFFFF" font-family="'Verlag-Bold'" font-size="30" rotate="-81.869">L</tspan><tspan x="206.933" y="-187.002" fill="#FFFFFF" font-family="'Verlag-Bold'" font-size="30" rotate="-88.272">O</tspan><tspan x="207.48" y="-213.611" fill="#FFFFFF" font-family="'Verlag-Bold'" font-size="30" rotate="-96.38">W</tspan><tspan x="203.354" y="-244.342" fill="#FFFFFF" font-family="'Verlag-Bold'" font-size="30" rotate="-103.579">S</tspan></text>
	<g>
		<g>
			<g>
				<path fill="#FFFFFF" d="M802.364,140.233c0,0-2.559,0.011-5.178,0.044c-0.192,0.543-1.749,4.876-1.749,4.876l-1.661-4.902
					l-5.15-0.2l4.125-3.056l-1.438-5l4.232,3l4.285-2.898l-1.534,4.923L802.364,140.233z"/>
			</g>
		</g>
		<g>
			<g>
				<path fill="#FFFFFF" d="M788.802,159.331c0,0-2.536,0.331-5.131,0.69c-0.123,0.563-1.126,5.056-1.126,5.056l-2.261-4.656
					l-5.135,0.445l3.711-3.547l-2.052-4.781l4.573,2.447l3.889-3.41l-0.906,5.076L788.802,159.331z"/>
			</g>
		</g>
		<g>
			<g>
				<path fill="#FFFFFF" d="M777.688,180.309c0,0-2.475,0.649-5.003,1.335c-0.051,0.574-0.477,5.158-0.477,5.158l-2.831-4.333
					l-5.037,1.091l3.232-3.988l-2.64-4.483l4.847,1.849l3.426-3.875l-0.258,5.15L777.688,180.309z"/>
			</g>
		</g>
		<g>
			<g>
				<path fill="#FFFFFF" d="M769.293,202.723c0,0-2.371,0.961-4.791,1.965c0.023,0.576,0.19,5.177,0.19,5.177l-3.364-3.934
					l-4.856,1.729l2.694-4.371l-3.194-4.107l5.044,1.212l2.9-4.283l0.406,5.141L769.293,202.723z"/>
			</g>
		</g>
		<g id="XMLID_6_">
			<g>
				<path fill="#FFFFFF" d="M764.236,226.346c0,0-2.227,1.262-4.495,2.572c0.099,0.568,0.861,5.108,0.861,5.108l-3.848-3.462
					l-4.59,2.346l2.103-4.684l-3.701-3.657l5.158,0.545l2.319-4.624l1.071,5.044L764.236,226.346z"/>
			</g>
		</g>
		<g>
			<g>
				<path fill="#FFFFFF" d="M762.246,250.992c0,0-2.04,1.544-4.115,3.141c0.172,0.55,1.526,4.95,1.526,4.95l-4.271-2.925
					l-4.239,2.93l1.466-4.919l-4.149-3.137l5.185-0.139l1.69-4.888l1.727,4.858L762.246,250.992z"/>
			</g>
		</g>
		<g>
			<g>
				<path fill="#FFFFFF" d="M763.476,275.631c0,0-1.819,1.799-3.666,3.655c0.243,0.523,2.165,4.706,2.165,4.706l-4.618-2.337
					l-3.817,3.463l0.806-5.07l-4.526-2.564l5.121-0.82l1.03-5.068l2.352,4.589L763.476,275.631z"/>
			</g>
		</g>
		<g>
			<g>
				<path fill="#FFFFFF" d="M767.836,299.172c0,0-1.568,2.021-3.156,4.104c0.31,0.487,2.764,4.383,2.764,4.383l-4.886-1.713
					l-3.331,3.934l0.135-5.132l-4.824-1.948l4.971-1.485l0.357-5.16l2.933,4.242L767.836,299.172z"/>
			</g>
		</g>
		<g>
			<g>
				<path fill="#FFFFFF" d="M774.946,321.568c0,0-1.294,2.207-2.6,4.479c0.37,0.442,3.306,3.988,3.306,3.988l-5.064-1.067
					l-2.795,4.33l-0.529-5.107l-5.035-1.309l4.736-2.114l-0.31-5.162l3.455,3.827L774.946,321.568z"/>
			</g>
		</g>
		<g>
			<g>
				<path fill="#FFFFFF" d="M1121.062,320.073c0,0,2.429-0.806,4.907-1.651c0.014-0.576,0.146-5.178,0.146-5.178l3.103,4.142
					l4.957-1.412l-2.97,4.188l2.921,4.305l-4.954-1.535l-3.171,4.086l-0.073-5.155L1121.062,320.073z"/>
			</g>
		</g>
		<g>
			<g>
				<path fill="#FFFFFF" d="M1127.781,297.031c0,0,2.304-1.113,4.652-2.273c-0.061-0.573-0.525-5.153-0.525-5.153l3.612,3.707
					l4.733-2.041l-2.404,4.536l3.454,3.891l-5.111-0.881l-2.616,4.462l-0.739-5.103L1127.781,297.031z"/>
			</g>
		</g>
		<g>
			<g>
				<path fill="#FFFFFF" d="M1131.332,272.872c0,0,2.138-1.405,4.314-2.861c-0.136-0.561-1.195-5.04-1.195-5.04l4.068,3.201
					l4.424-2.643l-1.789,4.811l3.934,3.405l-5.183-0.205l-2.01,4.766l-1.4-4.962L1131.332,272.872z"/>
			</g>
		</g>
		<g id="XMLID_5_">
			<g>
				<path fill="#FFFFFF" d="M1131.721,247.939c0,0,1.934-1.675,3.899-3.406c-0.208-0.538-1.849-4.839-1.849-4.839l4.453,2.638
					l4.038-3.203l-1.14,5.005l4.348,2.857l-5.164,0.48l-1.363,4.989l-2.043-4.734L1131.721,247.939z"/>
			</g>
		</g>
		<g>
			<g>
				<path fill="#FFFFFF" d="M1128.905,223.889c0,0,1.697-1.915,3.418-3.889c-0.277-0.506-2.47-4.554-2.47-4.554l4.762,2.029
					l3.581-3.706l-0.471,5.112l4.686,2.26l-5.056,1.155l-0.695,5.125l-2.648-4.424L1128.905,223.889z"/>
			</g>
		</g>
		<g>
			<g>
				<path fill="#FFFFFF" d="M1123.059,200.898c0,0,1.434-2.119,2.883-4.301c-0.34-0.465-3.041-4.193-3.041-4.193l4.985,1.392
					l3.069-4.141l0.198,5.13l4.94,1.631l-4.863,1.804l-0.023,5.172l-3.202-4.042L1123.059,200.898z"/>
			</g>
		</g>
		<g id="XMLID_4_">
			<g>
				<path fill="#FFFFFF" d="M1114.837,179.138c0,0,1.149-2.286,2.307-4.635c-0.397-0.418-3.554-3.769-3.554-3.769l5.123,0.741
					l2.512-4.5l0.854,5.062l5.109,0.984l-4.592,2.412l0.641,5.132l-3.693-3.598L1114.837,179.138z"/>
			</g>
		</g>
		<g>
			<g>
				<path fill="#FFFFFF" d="M1104.087,158.823c0,0,0.851-2.413,1.703-4.89c-0.447-0.365-4.003-3.289-4.003-3.289l5.176,0.087
					l1.923-4.782l1.488,4.913l5.192,0.331l-4.25,2.974l1.285,5.01l-4.119-3.103L1104.087,158.823z"/>
			</g>
		</g>
		<g>
			<g>
				<path fill="#FFFFFF" d="M1090.903,139.983c0,0,0.543-2.5,1.077-5.064c-0.489-0.306-4.383-2.762-4.383-2.762l5.146-0.562
					l1.309-4.985l2.092,4.688l5.192-0.322l-3.844,3.482l1.901,4.81l-4.475-2.563L1090.903,139.983z"/>
			</g>
		</g>
	</g>
	<g>
		<defs>
			<path id="SVGID_3_" d="M946.185,408.546c-85.697,0-155.418-69.72-155.418-155.417c0-85.697,69.721-155.417,155.418-155.417
				c85.697,0,155.416,69.72,155.416,155.417C1101.6,338.826,1031.882,408.546,946.185,408.546z"/>
		</defs>
		<clipPath id="SVGID_4_">
			<use xlink:href="#SVGID_3_"  overflow="visible"/>
		</clipPath>
		<path clip-path="url(#SVGID_4_)" fill="#FFFFFF" d="M1068.522,248.953c-21.037-40.149-49.406-78.478-66.377-82.782l17.283-10.151
			c-14.539-2.242-28.586,0.113-40.867-4.183c-12.465-4.361-21.037-6.922-29.898-6.879c-58.361,0.914-64.248,27.382-64.834,33.289
			c-0.467-0.65-0.67-1.051-0.67-1.051c-0.586,1.787-71.195,11.857-29.057,60.77c0,0,7.293-37.258,74.854-24.825
			c0,0-1.898-6.65-5.574-13.01c4.816,6.579,7.107,14.26,7.107,14.26c-31.336-7.805-55.232,5.226-55.232,5.226
			s40.246-2.714,56.361,28.921c8.131,16.008-9.232,52.235-25.709,73.372c-23.043,28.646-10.088,74.191-6.619,79.543l103.051-4.732
			l97.215-65.961C1099.556,330.759,1087.757,285.654,1068.522,248.953z"/>
		<g clip-path="url(#SVGID_4_)">
			<path fill="#283459" d="M1084.128,299.478c-7.121-14.758-21.828-25.288-23.633-23.953c-1.27,0.938-2.316,5.382-2.316,5.382
				s-5.625-0.475-9.893-2.743c-0.148-0.08-0.785-0.323-0.764,0.246c0.215,6.397-2.93,13.25-3.846,13.509
				c-1.668,0.477-5.279-3.832-7.004-2.574c-0.51,0.372-1.299,5.081-1.543,6.511c-0.938,5.469-1.816,10.778-1.139,18.385
				c0.172,1.93,0.275,3.693,0.322,5.321c-3.236-1.43-7.016-2.562-10.437-5.177c-4.676-3.572-7.768-10.29-7.768-10.29
				s-1.168-0.324-1.332,0.682c-1.238,7.549-8.182,36.393-10.777,35.338c-5.895-2.403-4.395-8.253-6.266-6.664
				c-1.873,1.59-7.639,9.752-15.494,19.074c-5.152,6.114-9.516,8.116-10.271,7.874c-3.557-1.14-4.781-10.961-6.426-9.937
				c-0.742,0.467-3.744,6.098-7.859,9.889c-2.766,2.553-5.94,4.739-8.506,7.626c1.393-15.926-7.492-29.227-9.586-34.479
				c-2.846-7.141-6.182-15.896-7.9-15.328c-0.494,0.162-0.426-0.19-0.402,0.549c0.166,5.157-1.869,13.822-3.289,18.439
				c-1.623,5.273-8.496,16.688-10.984,14.29c-2.486-2.398-2.135-9-3.285-8.457c-1.15,0.544-4.605,4.344-10.076,14.074
				c-8.188,14.565-1.912,44.866-1.912,44.866c0.15,0.218,0.348,0.406,0.564,0.578l0.15,0.636
				c29.246,7.586,60.746,8.351,92.227,0.873c42.297-10.045,79.363-35.781,104.957-66.893l-4.322-11.055
				C1095.317,326.069,1088.233,307.985,1084.128,299.478z"/>
			<path fill="#283459" d="M928.942,176.266c-9.363-0.399-9.473,3.225-9.473,3.225c6.58-1.562,7.816,0.828,7.816,0.828
				c5.033,8.739,9.99,12.805,19.053,10.653c10.787-3.502,8.504-15.924,8.504-15.924c16.213,2.077,30.943-6.932,30.625-6.856
				c-30.045,3.136-28.627-2.822-28.627-2.822C947.056,168.674,938.796,175.907,928.942,176.266z M948.183,180.954
				c-0.627,1.585-2.19,2.499-3.549,2.016c-1.336-0.525-1.908-2.23-1.318-3.852c0.617-1.63,2.215-2.545,3.541-2.057
				C948.187,177.56,948.798,179.298,948.183,180.954z"/>
			<path fill="#283459" d="M1101.909,327.136c-1.113-3.474-2.346-6.908-3.596-10.336c-3.033-8.328-6.221-16.601-9.35-24.895
				c-4.334-11.49-8.773-22.936-13.81-34.141c-4.1-9.119-8.74-17.991-13.649-26.699c-7.725-13.707-16.209-27.05-25.836-39.506
				c-4.729-6.118-9.779-12.036-15.402-17.353c-3.279-3.103-6.881-6.185-10.877-8.466l19.764-11.593
				c-1.977-0.299-3.953-0.597-5.93-0.896c-5.266-0.796-10.519-1.366-15.85-1.572c-7.602-0.293-15.334-0.012-22.832-1.499
				c-3.555-0.703-6.977-1.978-10.41-3.113c-6.404-2.117-12.986-4.025-19.719-4.713c-4.234-0.465-8.582-0.254-12.826,0.035
				c-8.088,0.553-16.133,1.619-23.982,3.687c-14.033,3.696-29.193,11.52-34.201,26.142c-0.018,0.051-0.035,0.106-0.055,0.159
				c-0.256,0.07-0.643,0.333-1.201,0.856c-1.85,1.737-6.381,3.778-10.379,5.363c-3.586,1.039-7.133,2.313-10.553,3.918
				c-1.74,0.799-3.453,1.673-5.102,2.67c-1.654,0.988-3.281,2.044-4.807,3.25c-3.068,2.375-5.852,5.23-7.926,8.585
				c-1.031,1.675-1.871,3.474-2.475,5.34c-0.602,1.87-0.934,3.811-1.055,5.745c-0.123,1.939,0.061,3.869,0.352,5.759
				c0.307,1.891,0.82,3.734,1.455,5.522c1.238,3.593,3.006,6.958,4.961,10.178c0.998,1.599,2.006,3.194,3.1,4.732
				c1.084,1.542,2.219,3.046,3.393,4.521l1.555,1.952l0.055-0.198v0.001c0,0,4.773-10.247,16.354-16.812
				c1.533-0.87,2.943-1.643,4.248-2.339c4.055,0.028,8.08,0.243,12.125,0.889c7.412,1.185,14.666,3.444,21.295,6.999
				c6.506,3.489,12.102,8.269,16.518,14.181c1.508,2.02,2.857,4.228,3.967,6.497c1.613,3.3,1.865,7.13,1.666,10.746
				c-0.426,7.772-2.893,15.393-5.717,22.591c-2.879,7.337-6.398,14.423-10.355,21.236c-3.188,5.485-6.678,10.765-10.428,15.876
				c-3.971,5.409-7.229,11.232-9.723,17.471c-3.398,8.497-4.143,17.935-4.205,27.007c-0.045,6.103,0.268,12.207,0.719,18.29
				c0.279,3.785,0.807,7.458,1.844,11.118c0.648,2.286,1.398,4.676,2.643,6.719c0.365,0.055,0.73,0.108,1.098,0.162
				c-0.168-0.32-0.24-0.702-0.314-1.053c-0.797-3.681-1.018-7.528-1.352-11.27c-0.385-4.329-0.711-8.662-1-12.998
				c-0.902-13.567,0.188-27.557,5.775-40.112c2.416-5.431,5.764-10.107,9.4-14.757c4.246-5.427,8.037-11.232,11.486-17.193
				c3.799-6.561,7.227-13.367,9.998-20.427c2.701-6.869,4.896-14.123,5.514-21.505c0.312-3.708,0.188-7.543-0.836-11.137
				c-0.68-2.39-1.867-4.619-3.17-6.727c-3.822-6.177-8.768-11.515-14.816-15.571c-9.877-6.627-22.002-10.092-33.99-10.666
				c6.68-2.521,13.891-3.92,20.887-4.533c1.031-0.017,2.064-0.032,3.1,0.019c1.758,0.081,3.518,0.066,5.277,0.234l2.641,0.192
				c0.883,0.04,1.764,0.105,2.645,0.203l5.293,0.51c1.768,0.195,3.531,0.424,5.307,0.591l0.432,0.041
				c0.94,0.2,1.879,0.407,2.816,0.63c-0.039-0.126-0.08-0.252-0.121-0.378h0.002l-0.012-0.036
				c-1.863-5.908-4.631-12.389-8.764-17.367c-0.106-0.146-0.207-0.297-0.315-0.442c-0.854-1.149-1.77-2.255-2.76-3.289
				c-0.971-1.051-2.031-2.025-3.188-2.875c-1.164-0.835-2.408-1.574-3.752-2.087c-1.34-0.503-2.771-0.756-4.199-0.724l-0.012-0.001
				c-3.408-0.509-5.994-0.689-14.068-3.223c-2.627-1.195-4.498-2.338-5.943-3.591c-0.881-0.763-1.705-1.58-2.428-2.462
				c-0.271-0.323-0.51-0.664-0.75-1.003c0.637-5.804,4.398-11.336,8.539-15.189c4.93-4.588,11.088-7.661,17.4-9.861
				c11.398-3.974,23.613-4.976,35.6-5.274c10.297-0.255,20.121,3.237,29.695,6.653c10.383,3.706,21.32,3.276,32.16,3.826
				c-5.117,3.01-10.236,6.021-15.355,9.032c2.572,0.657,5.141,1.313,7.709,1.97c3.223,0.823,6.135,2.683,8.787,4.636
				c3.033,2.234,5.828,4.789,8.496,7.444c5.549,5.526,10.568,11.585,15.354,17.775c9.771,12.636,18.486,26.131,26.502,39.938
				c4.443,7.651,8.611,15.424,12.525,23.354c4.697,9.518,8.67,19.366,12.668,29.19c3.367,8.272,6.742,16.541,10.08,24.823
				c1.5,3.718,2.994,7.435,4.457,11.165c0.779,1.989,1.646,3.979,2.262,6.028c0.379-1.019,0.861-1.798,0.582-2.86
				C1102.687,329.597,1102.304,328.364,1101.909,327.136z M890.431,187.465c4.301,2.275,9.111,3.303,13.873,4.071
				c1.602,0.257,3.225,0.381,4.836,0.547c3.19,0.327,6.021,1.484,8.537,3.478c1.818,1.428,3.432,3.134,4.867,5.011
				c0.844,1.705,1.576,3.465,2.24,5.245c0.479,1.291,0.914,2.597,1.309,3.912c0.09,0.295,0.168,0.592,0.254,0.888
				c-0.795-0.171-1.588-0.34-2.383-0.516c-1.779-0.398-3.594-0.62-5.395-0.926c-1.799-0.325-3.629-0.467-5.449-0.665
				c-1.816-0.223-3.656-0.262-5.488-0.395c-1.83-0.136-3.678-0.1-5.518-0.143c-1.846,0.026-3.689,0.138-5.537,0.228
				c-1.844,0.205-3.695,0.275-5.531,0.593l-2.754,0.445l-2.734,0.59c-0.916,0.178-1.815,0.438-2.717,0.686
				c-0.898,0.257-1.809,0.471-2.691,0.794c-0.887,0.306-1.779,0.589-2.66,0.915l-2.611,1.062c-1.719,0.777-3.412,1.605-5.045,2.56
				c-1.639,0.944-3.201,2.019-4.703,3.174c-0.744,0.587-1.463,1.211-2.182,1.825c-0.684,0.663-1.389,1.297-2.023,2.006
				c-1.307,1.374-2.486,2.869-3.557,4.431c-1.045,1.583-1.973,3.236-2.746,4.963c-0.447,1.01-0.836,2.014-1.168,3.062
				c-0.68-0.766-1.35-1.54-2-2.329c-1.16-1.421-2.311-2.857-3.328-4.384c-2.072-3.022-3.838-6.264-5.059-9.696
				c-0.6-1.719-1.035-3.487-1.295-5.271c-0.268-1.784-0.273-3.594-0.072-5.361c0.395-3.546,1.867-6.874,4.02-9.638
				c2.146-2.787,4.908-5.056,7.871-7.01c1.494-0.962,3.025-1.882,4.611-2.717c1.592-0.825,3.205-1.618,4.848-2.366
				c3.301-1.463,6.691-2.773,10.135-4.016c1.719-0.636,3.455-1.226,5.209-1.813l2.641-0.918l1.068-0.386
				c0.096,0.542,0.27,1.051,0.549,1.504C884.458,183.849,887.435,185.88,890.431,187.465z"/>
		</g>
	</g>
</g>
<g id="midground">
</g>
<g id="foreground">
	<g>
		<defs>
			<path id="SVGID_5_" d="M255.5,411.546c-85.697,0-155.418-69.72-155.418-155.418c0-85.697,69.72-155.417,155.418-155.417
				c85.697,0,155.417,69.72,155.417,155.417C410.917,341.826,341.197,411.546,255.5,411.546z"/>
		</defs>
		<clipPath id="SVGID_6_">
			<use xlink:href="#SVGID_5_"  overflow="visible"/>
		</clipPath>
		<g clip-path="url(#SVGID_6_)">
			<path fill="#FFFFFF" d="M377.839,251.953c-21.038-40.149-49.407-78.478-66.377-82.782l17.282-10.151
				c-14.539-2.242-28.586,0.113-40.867-4.183c-12.465-4.361-21.037-6.922-29.897-6.879c-58.361,0.914-64.248,27.382-64.835,33.289
				c-0.466-0.65-0.67-1.051-0.67-1.051c-0.586,1.787-71.194,11.857-29.056,60.77c0,0,7.292-37.258,74.852-24.825
				c0,0-1.898-6.65-5.574-13.01c4.817,6.579,7.107,14.26,7.107,14.26c-31.336-7.805-55.231,5.226-55.231,5.226
				s40.246-2.714,56.361,28.921c8.131,16.008-9.233,52.235-25.709,73.372c-23.044,28.646-10.089,74.191-6.619,79.543l200.266-70.693
				C408.872,333.759,397.073,288.654,377.839,251.953z"/>
			<g>
				<path fill="#0E132F" d="M393.444,302.478c-7.121-14.758-21.828-25.288-23.634-23.953c-1.268,0.938-2.316,5.382-2.316,5.382
					s-5.625-0.475-9.893-2.743c-0.148-0.08-0.784-0.323-0.764,0.246c0.215,6.397-2.93,13.25-3.846,13.509
					c-1.668,0.477-5.279-3.832-7.003-2.574c-0.511,0.372-1.299,5.081-1.543,6.511c-0.938,5.469-1.817,10.778-1.14,18.385
					c0.172,1.93,0.275,3.693,0.322,5.321c-3.235-1.43-7.016-2.562-10.437-5.177c-4.676-3.572-7.769-10.29-7.769-10.29
					s-1.167-0.324-1.332,0.682c-1.237,7.549-8.182,36.393-10.777,35.338c-5.895-2.403-4.395-8.253-6.266-6.664
					c-1.873,1.59-7.638,9.752-15.494,19.074c-5.151,6.114-9.515,8.116-10.27,7.874c-3.558-1.14-4.781-10.961-6.426-9.937
					c-0.742,0.467-3.745,6.098-7.859,9.889c-2.767,2.553-5.94,4.739-8.507,7.626c1.394-15.926-7.492-29.227-9.586-34.479
					c-2.846-7.141-6.181-15.896-7.9-15.328c-0.494,0.162-0.426-0.19-0.402,0.549c0.167,5.157-1.868,13.822-3.289,18.439
					c-1.623,5.273-8.496,16.688-10.983,14.29c-2.486-2.398-2.136-9-3.286-8.457c-1.149,0.544-4.604,4.344-10.076,14.074
					c-8.187,14.565-1.911,44.866-1.911,44.866c0.15,0.218,0.347,0.406,0.563,0.578l0.151,0.636
					c29.245,7.586,60.746,8.351,92.226,0.873c42.297-10.045,79.363-35.781,104.958-66.893l-4.322-11.055
					C404.634,329.069,397.549,310.985,393.444,302.478z"/>
				<path fill="#0E132F" d="M238.259,179.266c-9.363-0.399-9.473,3.225-9.473,3.225c6.58-1.562,7.815,0.828,7.815,0.828
					c5.034,8.739,9.991,12.805,19.053,10.653c10.787-3.502,8.504-15.924,8.504-15.924c16.214,2.077,30.943-6.932,30.626-6.856
					c-30.045,3.136-28.627-2.822-28.627-2.822C256.371,171.674,248.111,178.907,238.259,179.266z M257.499,183.954
					c-0.627,1.585-2.19,2.499-3.55,2.016c-1.335-0.525-1.907-2.23-1.317-3.852c0.617-1.63,2.215-2.545,3.54-2.057
					C257.502,180.56,258.114,182.298,257.499,183.954z"/>
				<path fill="#0E132F" d="M411.225,330.136c-1.114-3.474-2.347-6.908-3.597-10.336c-3.033-8.328-6.22-16.601-9.349-24.895
					c-4.335-11.49-8.774-22.936-13.811-34.141c-4.099-9.119-8.739-17.991-13.647-26.699c-7.726-13.707-16.21-27.05-25.837-39.506
					c-4.729-6.118-9.778-12.036-15.401-17.353c-3.28-3.103-6.882-6.185-10.878-8.466l19.764-11.593
					c-1.976-0.299-3.953-0.597-5.929-0.896c-5.267-0.796-10.521-1.366-15.85-1.572c-7.602-0.293-15.335-0.012-22.833-1.499
					c-3.554-0.703-6.976-1.978-10.409-3.113c-6.404-2.117-12.986-4.025-19.719-4.713c-4.234-0.465-8.583-0.254-12.826,0.035
					c-8.089,0.553-16.133,1.619-23.983,3.687c-14.032,3.696-29.192,11.52-34.2,26.142c-0.018,0.051-0.036,0.106-0.055,0.159
					c-0.256,0.07-0.643,0.333-1.201,0.856c-1.851,1.737-6.382,3.778-10.379,5.363c-3.586,1.039-7.133,2.313-10.553,3.918
					c-1.74,0.799-3.453,1.673-5.102,2.67c-1.654,0.988-3.281,2.044-4.808,3.25c-3.068,2.375-5.852,5.23-7.925,8.585
					c-1.031,1.675-1.871,3.474-2.475,5.34c-0.602,1.87-0.935,3.811-1.056,5.745c-0.123,1.939,0.062,3.869,0.352,5.759
					c0.307,1.891,0.821,3.734,1.456,5.522c1.238,3.593,3.005,6.958,4.961,10.178c0.998,1.599,2.006,3.194,3.099,4.732
					c1.084,1.542,2.22,3.046,3.393,4.521l1.555,1.952l0.056-0.198v0.001c0,0,4.772-10.247,16.353-16.812
					c1.533-0.87,2.943-1.643,4.249-2.339c4.055,0.028,8.08,0.243,12.125,0.889c7.412,1.185,14.666,3.444,21.294,6.999
					c6.507,3.489,12.102,8.269,16.519,14.181c1.508,2.02,2.856,4.228,3.966,6.497c1.613,3.3,1.865,7.13,1.667,10.746
					c-0.427,7.772-2.893,15.393-5.717,22.591c-2.88,7.337-6.399,14.423-10.356,21.236c-3.188,5.485-6.678,10.765-10.428,15.876
					c-3.97,5.409-7.229,11.232-9.723,17.471c-3.398,8.497-4.143,17.935-4.204,27.007c-0.045,6.103,0.268,12.207,0.719,18.29
					c0.279,3.785,0.807,7.458,1.844,11.118c0.647,2.286,1.397,4.676,2.643,6.719c0.364,0.055,0.73,0.108,1.098,0.162
					c-0.169-0.32-0.24-0.702-0.315-1.053c-0.796-3.681-1.018-7.528-1.351-11.27c-0.385-4.329-0.712-8.662-1-12.998
					c-0.902-13.567,0.188-27.557,5.774-40.112c2.416-5.431,5.765-10.107,9.401-14.757c4.245-5.427,8.036-11.232,11.485-17.193
					c3.799-6.561,7.227-13.367,9.999-20.427c2.7-6.869,4.895-14.123,5.514-21.505c0.312-3.708,0.188-7.543-0.836-11.137
					c-0.68-2.39-1.868-4.619-3.171-6.727c-3.822-6.177-8.767-11.515-14.815-15.571c-9.878-6.627-22.002-10.092-33.99-10.666
					c6.679-2.521,13.891-3.92,20.887-4.533c1.031-0.017,2.063-0.032,3.099,0.019c1.758,0.081,3.518,0.066,5.277,0.234l2.641,0.192
					c0.883,0.04,1.765,0.105,2.646,0.203l5.293,0.51c1.768,0.195,3.53,0.424,5.307,0.591l0.431,0.041
					c0.94,0.2,1.879,0.407,2.816,0.63c-0.039-0.126-0.08-0.252-0.12-0.378h0.002l-0.013-0.036
					c-1.863-5.908-4.631-12.389-8.763-17.367c-0.107-0.146-0.207-0.297-0.314-0.442c-0.855-1.149-1.77-2.255-2.761-3.289
					c-0.97-1.051-2.03-2.025-3.188-2.875c-1.163-0.835-2.407-1.574-3.751-2.087c-1.34-0.503-2.772-0.756-4.2-0.724l-0.011-0.001
					c-3.409-0.509-5.995-0.689-14.068-3.223c-2.627-1.195-4.499-2.338-5.944-3.591c-0.881-0.763-1.705-1.58-2.427-2.462
					c-0.272-0.323-0.511-0.664-0.75-1.003c0.637-5.804,4.397-11.336,8.539-15.189c4.929-4.588,11.088-7.661,17.399-9.861
					c11.398-3.974,23.614-4.976,35.601-5.274c10.297-0.255,20.121,3.237,29.694,6.653c10.384,3.706,21.321,3.276,32.161,3.826
					c-5.117,3.01-10.237,6.021-15.356,9.032c2.572,0.657,5.141,1.313,7.71,1.97c3.223,0.823,6.134,2.683,8.787,4.636
					c3.033,2.234,5.828,4.789,8.495,7.444c5.549,5.526,10.569,11.585,15.354,17.775c9.771,12.636,18.486,26.131,26.502,39.938
					c4.442,7.651,8.61,15.424,12.524,23.354c4.697,9.518,8.671,19.366,12.669,29.19c3.367,8.272,6.742,16.541,10.08,24.823
					c1.499,3.718,2.993,7.435,4.456,11.165c0.78,1.989,1.647,3.979,2.262,6.028c0.379-1.019,0.862-1.798,0.583-2.86
					C412.002,332.597,411.62,331.364,411.225,330.136z M199.746,190.465c4.302,2.275,9.112,3.303,13.874,4.071
					c1.601,0.257,3.224,0.381,4.836,0.547c3.189,0.327,6.02,1.484,8.537,3.478c1.817,1.428,3.432,3.134,4.867,5.011
					c0.843,1.705,1.576,3.465,2.24,5.245c0.478,1.291,0.913,2.597,1.309,3.912c0.089,0.295,0.168,0.592,0.253,0.888
					c-0.794-0.171-1.588-0.34-2.382-0.516c-1.779-0.398-3.595-0.62-5.396-0.926c-1.798-0.325-3.628-0.467-5.448-0.665
					c-1.816-0.223-3.657-0.262-5.488-0.395c-1.831-0.136-3.679-0.1-5.518-0.143c-1.846,0.026-3.69,0.138-5.537,0.228
					c-1.844,0.205-3.695,0.275-5.532,0.593l-2.754,0.445l-2.734,0.59c-0.915,0.178-1.814,0.438-2.716,0.686
					c-0.899,0.257-1.809,0.471-2.691,0.794c-0.888,0.306-1.78,0.589-2.661,0.915l-2.61,1.062c-1.72,0.777-3.413,1.605-5.046,2.56
					c-1.638,0.944-3.2,2.019-4.702,3.174c-0.745,0.587-1.463,1.211-2.183,1.825c-0.683,0.663-1.388,1.297-2.022,2.006
					c-1.308,1.374-2.487,2.869-3.558,4.431c-1.044,1.583-1.973,3.236-2.746,4.963c-0.447,1.01-0.835,2.014-1.168,3.062
					c-0.679-0.766-1.349-1.54-2-2.329c-1.159-1.421-2.31-2.857-3.327-4.384c-2.072-3.022-3.838-6.264-5.059-9.696
					c-0.599-1.719-1.034-3.487-1.294-5.271c-0.269-1.784-0.273-3.594-0.072-5.361c0.395-3.546,1.867-6.874,4.02-9.638
					c2.145-2.787,4.907-5.056,7.87-7.01c1.495-0.962,3.026-1.882,4.611-2.717c1.592-0.825,3.205-1.618,4.848-2.366
					c3.302-1.463,6.692-2.773,10.135-4.016c1.719-0.636,3.456-1.226,5.21-1.813l2.641-0.918l1.068-0.386
					c0.096,0.542,0.27,1.051,0.548,1.504C193.774,186.849,196.75,188.88,199.746,190.465z"/>
			</g>
		</g>
	</g>
</g>
<g id="guides">
</g>
</svg>
